<svg xmlns="http://www.w3.org/2000/svg" width="45.05" height="53.931" viewBox="0 0 45.05 53.931">
  <g id="An치lise_de_칩leo" data-name="An치lise de 칩leo" transform="translate(-0.058)">
    <g id="Group_544" data-name="Group 544" transform="translate(0.058)">
      <path id="Path_482" data-name="Path 482" d="M35.171,24.954C29.785,16.6,24.4,8.355,19.012,0h0C13.625,8.355,8.019,16.489,2.852,24.954A19.18,19.18,0,0,0,10.547,52a19.266,19.266,0,0,0,25.5-8.574A19.351,19.351,0,0,0,35.171,24.954ZM18.792,47.929A1.888,1.888,0,0,1,16.374,49.8,18.468,18.468,0,0,1,12.2,48.479a15.21,15.21,0,0,1-7.7-9.344,14.558,14.558,0,0,1,.55-9.894,2.071,2.071,0,0,1,2.858-1.1c.989.55,1.1,1.979.77,3.3a11.229,11.229,0,0,0-.11,6.6,10.889,10.889,0,0,0,5.606,6.816,19.819,19.819,0,0,0,2.309.879C17.693,45.95,18.9,46.83,18.792,47.929Z" transform="translate(-0.058)" fill="#232d5f"/>
    </g>
    <path id="Path_483" data-name="Path 483" d="M42.685,47.9,38.838,44.05a9.877,9.877,0,0,0,1.649-5.606A10.443,10.443,0,1,0,30.043,48.886a10.639,10.639,0,0,0,6.376-2.2l3.738,3.738a1.653,1.653,0,0,0,1.209.44,2.305,2.305,0,0,0,1.209-.44A1.764,1.764,0,0,0,42.685,47.9Z" transform="translate(1.94 2.78)" fill="#7082a4"/>
    <path id="Path_484" data-name="Path 484" d="M22.7,38.035A7.014,7.014,0,0,1,29.735,31a7.158,7.158,0,0,1,7.035,7.035,7.014,7.014,0,0,1-7.035,7.035A7.085,7.085,0,0,1,22.7,38.035Z" transform="translate(2.248 3.078)" fill="#fff"/>
  </g>
</svg>
