<svg xmlns="http://www.w3.org/2000/svg" width="44.6" height="48.257" viewBox="0 0 44.6 48.257">
  <path id="Aprovado" d="M5.653,37.151A1.853,1.853,0,1,1,3.8,39a1.86,1.86,0,0,1,1.853-1.853m5.574-14.914-.015,18.514c1.139.273,1.671-.167,4.359.759,1.306.456,2.521.866,3.858,1.306,5.1,1.686,6.835,1.671,11.908,1.671A5.994,5.994,0,0,0,35.939,43c1.185-1.139,1.154-3.083.987-5.027,1.261-.577,1.99-2.506,1.853-4.04-.061-.653-.41-1.185-.425-1.625a9.141,9.141,0,0,0,.911-1.2,4.156,4.156,0,0,0,.516-1.655,4.989,4.989,0,0,0-.5-2.764c-.152-.334-.273-.395-.395-.714l.106-.076c.668-.365.8-.243,1.382-1.412,1.215-2.445.456-4.83-1.792-5.771-1.473-.623-9.189-.091-11.528-.273-.076-3.311,3.372-6.531,2.688-10.783-.349-2.157-.79-3.493-2.886-3.918a6.361,6.361,0,0,0-1.595-.106C23.94,3.981,23.94,9.6,21.935,12.3c-.486.653-1.078,1.185-1.564,1.823-1.048,1.352-3.782,4.769-4.648,5.7a8.224,8.224,0,0,1-2.886,2.217C12.26,22.222,11.683,22.1,11.227,22.237Zm29.39,19.182c.091-.608.076-1.124.137-1.7.061-.562,1.261-1.5,1.625-3.873a7.534,7.534,0,0,0,.106-1.762c-.061-.926-.137-.8.2-1.534a8.61,8.61,0,0,0,.79-2.825c.228-2.309-.486-2.384.015-3.25,1.5-2.552,1.625-6.121-.091-8.4-3.129-4.192-6.273-3.22-11.194-3.326-.015-.425,1.139-2.4,1.261-4.678C33.737,4.953,32.309.929,27.054.048c-5.559-.926-6.136,3.068-7.169,7.594-.592,2.6-1.352,2.9-2.931,4.8-1.458,1.731-3.372,4.541-4.967,5.847-.365.289-.79.2-1.337.2H6.018c-2.111,0-3.843-.167-4.951,1.23a3.309,3.309,0,0,0-.942,2.141c-.137,1.245-.03,13.487-.03,15.4,0,1.868-.289,4.161.608,5.559C2.342,45.368,8.539,44.5,11.349,44.5a16.528,16.528,0,0,1,4.982,1.215C22.907,47.722,39.083,51.686,40.617,41.419Z" transform="translate(-0.05 0.087)" fill="#77bb6b" fill-rule="evenodd"/>
</svg>
