<svg id="Controle_de_Demanda" data-name="Controle de Demanda" xmlns="http://www.w3.org/2000/svg" width="46.3" height="52.9" viewBox="0 0 46.3 52.9">
  <path id="Path_488" data-name="Path 488" d="M42.7.2,23.3.1,3.8,0A3.585,3.585,0,0,0,.2,3.6L0,49.1a3.585,3.585,0,0,0,3.6,3.6l19.5.1,19.4.1a3.585,3.585,0,0,0,3.6-3.6l.2-45.5A3.585,3.585,0,0,0,42.7.2Z" fill="#7082a4"/>
  <g id="Group_556" data-name="Group 556">
    <path id="Path_489" data-name="Path 489" d="M18.4,20.8a.906.906,0,0,0,0,1.8H29.9a.906.906,0,0,0,0-1.8Z" fill="#fff"/>
    <path id="Path_490" data-name="Path 490" d="M18.4,24.6a.906.906,0,0,0,0,1.8H41.9a.906.906,0,0,0,0-1.8Z" fill="#fff"/>
    <path id="Path_491" data-name="Path 491" d="M6.2,12.3c-.7,0-1.2.4-1.2.9s.5.9,1.2.9l35.3.1c.7,0,1.2-.4,1.2-.9s-.5-.9-1.2-.9Z" fill="#fff"/>
    <path id="Path_492" data-name="Path 492" d="M6.2,7a1.018,1.018,0,0,0-1.1.9c0,.5.5.9,1.2.9L41.5,9c.7,0,1.2-.4,1.2-.9s-.5-.9-1.2-.9Z" fill="#fff"/>
    <path id="Path_493" data-name="Path 493" d="M18.4,37.8a.906.906,0,0,0,0,1.8H29.9a.906.906,0,0,0,0-1.8Z" fill="#fff"/>
    <path id="Path_494" data-name="Path 494" d="M18.4,41.6a.906.906,0,0,0,0,1.8H41.9a.906.906,0,0,0,0-1.8Z" fill="#fff"/>
    <g id="Group_553" data-name="Group 553">
      <g id="Group_552" data-name="Group 552">
        <path id="Path_495" data-name="Path 495" d="M13.7,23.6a5.5,5.5,0,1,1-5.5-5.5A5.549,5.549,0,0,1,13.7,23.6Z" fill="#eba43f"/>
        <path id="Path_496" data-name="Path 496" d="M7.2,26.5a1.136,1.136,0,0,1-.8-.3L4.9,24.5A1.087,1.087,0,0,1,5,23a.966.966,0,0,1,1.4.1l.9,1,2.8-2.3a.992.992,0,1,1,1.3,1.5l-3.5,3A2.544,2.544,0,0,1,7.2,26.5Z" fill="#fff"/>
      </g>
    </g>
    <g id="Group_555" data-name="Group 555">
      <g id="Group_554" data-name="Group 554">
        <path id="Path_497" data-name="Path 497" d="M13.7,40.3a5.5,5.5,0,1,1-5.5-5.5A5.421,5.421,0,0,1,13.7,40.3Z" fill="#77bb6b"/>
        <path id="Path_498" data-name="Path 498" d="M7.2,43.1a1.135,1.135,0,0,1-.8-.3L4.9,41.1A1.093,1.093,0,0,1,5,39.6a.966.966,0,0,1,1.4.1l.9,1,2.8-2.3a.992.992,0,1,1,1.3,1.5l-3.5,3A1.078,1.078,0,0,1,7.2,43.1Z" fill="#fff"/>
      </g>
    </g>
  </g>
</svg>
