<svg xmlns="http://www.w3.org/2000/svg" width="54.3" height="57.3" viewBox="0 0 54.3 57.3">
  <g id="Excel_icone" data-name="Excel icone" transform="translate(-1157 -1731)">
    <g id="Group_219_1_" transform="translate(1182 1749)">
      <g id="Group_217_1_">
        <path id="Path_202_1_" d="M25.2,2.6H11A2.308,2.308,0,0,1,8.7.4V-13.8a2.348,2.348,0,0,1,2.4-2.3,2.348,2.348,0,0,1,2.3,2.4V-1.8H25.3A2.308,2.308,0,0,1,27.6.4V.5a2.318,2.318,0,0,1-2.4,2.1Z" fill="#327051"/>
        <path id="Path_203_1_" d="M11-13.5,24.8.3V34.7H-10.5V-13.5H11M11-18H-10.5A4.481,4.481,0,0,0-15-13.5h0V34.8a4.481,4.481,0,0,0,4.5,4.5H24.8a4.481,4.481,0,0,0,4.5-4.5h0V.4A4.816,4.816,0,0,0,28-2.8L14.2-16.7A4.816,4.816,0,0,0,11-18Z" fill="#327051"/>
      </g>
    </g>
    <g id="Group_331" data-name="Group 331">
      <path id="Rectangle_352_1_" d="M1161,1758.1h31a4.012,4.012,0,0,1,4,4v11a4.012,4.012,0,0,1-4,4h-31a4.012,4.012,0,0,1-4-4v-11A4.012,4.012,0,0,1,1161,1758.1Z" fill="#327051"/>
      <g id="Group_330" data-name="Group 330">
        <path id="Path_248" data-name="Path 248" d="M1168.3,1766.7l1.9-3.5h2.3l-3,4.9,3.1,5h-2.4l-1.9-3.6-1.9,3.6h-2.3l3-5-3-4.9h2.3Z" fill="#fff"/>
        <path id="Path_249" data-name="Path 249" d="M1175.7,1771.6h4.4v1.5h-6.4v-10h2Z" fill="#fff"/>
        <path id="Path_250" data-name="Path 250" d="M1186.6,1770.5a.975.975,0,0,0-.4-.9,4.467,4.467,0,0,0-1.4-.7,6.811,6.811,0,0,1-2.7-1.2,2.478,2.478,0,0,1,.1-3.9,4.551,4.551,0,0,1,2.7-.8,4,4,0,0,1,2.7.9,2.643,2.643,0,0,1,1,2.1h-1.9a1.432,1.432,0,0,0-.5-1.1,1.7,1.7,0,0,0-1.3-.4,1.594,1.594,0,0,0-1.2.4.975.975,0,0,0-.4.9,1.02,1.02,0,0,0,.5.8,14.363,14.363,0,0,0,1.6.7,6.476,6.476,0,0,1,2.5,1.2,2.438,2.438,0,0,1,.8,2,2.221,2.221,0,0,1-1,2,4.526,4.526,0,0,1-2.7.7,5.118,5.118,0,0,1-2.8-.8,2.676,2.676,0,0,1-1.2-2.3h1.9a1.728,1.728,0,0,0,.5,1.3,2.41,2.41,0,0,0,1.5.4,1.922,1.922,0,0,0,1.2-.3A1.6,1.6,0,0,0,1186.6,1770.5Z" fill="#fff"/>
      </g>
    </g>
  </g>
</svg>
