<svg id="Gestão_de_Manutenção_-_MEGA_02" data-name="Gestão de Manutenção - MEGA 02" xmlns="http://www.w3.org/2000/svg" width="63.034" height="60" viewBox="0 0 63.034 60">
  <g id="Group_428" data-name="Group 428" transform="translate(0 7.668)">
    <path id="Path_385" data-name="Path 385" d="M57.91,22.3H54.8a9.588,9.588,0,0,0-1.038-2.476l2.157-2.157a1.254,1.254,0,0,0,0-1.757L52.8,12.795a1.254,1.254,0,0,0-1.757,0l-2.157,2.157a13.518,13.518,0,0,0-2.476-1.038V10.8a1.176,1.176,0,0,0-1.2-1.2H40.818a1.228,1.228,0,0,0-1.2,1.2v3.115a9.588,9.588,0,0,0-2.476,1.038l-2.157-2.157a1.209,1.209,0,0,0-1.518-.16h0c-.08.08-.16.08-.16.16L30.195,15.91a1.254,1.254,0,0,0,0,1.757l.4.4,1.757,1.757A13.518,13.518,0,0,0,31.313,22.3H28.2A1.228,1.228,0,0,0,27,23.5v4.393a1.228,1.228,0,0,0,1.2,1.2h3.115a9.588,9.588,0,0,0,1.038,2.476l-2.157,2.157a1.254,1.254,0,0,0,0,1.757l3.115,3.115a1.254,1.254,0,0,0,1.757,0l2.157-2.157A13.518,13.518,0,0,0,39.7,37.475V40.59a1.228,1.228,0,0,0,1.2,1.2h4.393a1.176,1.176,0,0,0,1.2-1.2V37.475a9.588,9.588,0,0,0,2.476-1.038L50,37.475l1.2,1.2a.986.986,0,0,0,.639.319,1.186,1.186,0,0,0,1.118-.319L54.4,37.235l1.6-1.6a1.158,1.158,0,0,0,0-1.677v-.08l-2.157-2.157a13.517,13.517,0,0,0,1.038-2.476H57.99a1.176,1.176,0,0,0,1.2-1.2V23.657A1.387,1.387,0,0,0,57.91,22.3ZM43.054,33.082A7.348,7.348,0,1,1,50.4,25.734,7.329,7.329,0,0,1,43.054,33.082Z" transform="translate(-5.435 -9.6)" fill="#77bb6b"/>
    <path id="Path_386" data-name="Path 386" d="M23.482,42.944H21.166a9.772,9.772,0,0,0-.8-1.917l1.677-1.677a.919.919,0,0,0,0-1.358l-2.316-2.316h0a.919.919,0,0,0-1.358,0l-1.118,1.038-.559.559a10.642,10.642,0,0,0-1.917-.8v-2.4a.907.907,0,0,0-.24-.639c0-.08-.08-.08-.16-.08a1.135,1.135,0,0,0-.479-.16H10.543a.856.856,0,0,0-.479.16c-.08,0-.08.08-.16.08a.907.907,0,0,0-.24.639v2.4c-.16.08-.319.08-.479.16a4.886,4.886,0,0,0-.958.4l-.479.24L6.07,35.6a.831.831,0,0,0-1.278,0L2.4,37.912h0a1.1,1.1,0,0,0-.24.319A.894.894,0,0,0,2.4,39.27l1.677,1.757a10.641,10.641,0,0,0-.8,1.917H.958A.971.971,0,0,0,0,43.9v3.355a.971.971,0,0,0,.958.958H3.275a7.533,7.533,0,0,0,.8,1.837h0L2.4,51.65h0a1.1,1.1,0,0,0-.24.319,1.271,1.271,0,0,0,.24,1.038l2.4,2.4h0a.9.9,0,0,0,1.278-.08l1.677-1.677a13.779,13.779,0,0,0,1.917.8v2.316a.971.971,0,0,0,.958.958h3.355a.971.971,0,0,0,.958-.958V54.446a9.772,9.772,0,0,0,1.917-.8l1.677,1.677a1.082,1.082,0,0,0,1.358,0l2.316-2.4c.08-.08.08-.16.16-.24l.08-.319a1.349,1.349,0,0,0-.24-.8l-1.677-1.677a13.779,13.779,0,0,0,.8-1.917h2.316a.971.971,0,0,0,.958-.958V43.663A1.3,1.3,0,0,0,23.482,42.944ZM12.22,51.091A5.591,5.591,0,1,1,17.811,45.5,5.557,5.557,0,0,1,12.22,51.091Z" transform="translate(0 -14.35)" fill="#f58c43"/>
    <path id="Path_387" data-name="Path 387" d="M44.488,59.508l-1.518-.639a4.343,4.343,0,0,0,0-1.438l1.518-.639a.672.672,0,0,0,.319-.879l-.879-2.236a.646.646,0,0,0-.879-.319L41.533,54a6.384,6.384,0,0,0-1.038-1.038l.639-1.518a.509.509,0,0,0,0-.479.656.656,0,0,0-.4-.4L38.5,49.684a.621.621,0,0,0-.8.24l-.08.08-.559,1.518a4.343,4.343,0,0,0-1.438,0L34.983,50a.672.672,0,0,0-.879-.319l-2.157.958a.672.672,0,0,0-.319.879l.639,1.518a6.384,6.384,0,0,0-1.038,1.038l-1.677-.719a.646.646,0,0,0-.879.4l-.8,2v.08l-.08.319a.571.571,0,0,0,.4.719l1.518.639a4.343,4.343,0,0,0,0,1.438l-1.518.639a.757.757,0,0,0-.4.879l.879,2.236a.672.672,0,0,0,.879.319l1.518-.639a6.385,6.385,0,0,0,1.038,1.038l-.639,1.518a.646.646,0,0,0,.4.879L34.1,66.7a.672.672,0,0,0,.879-.319l.639-1.6a4.343,4.343,0,0,0,1.438,0L37.7,66.3a.8.8,0,0,0,.879.4l2.157-.958a.672.672,0,0,0,.319-.879l-.639-1.518A6.385,6.385,0,0,0,41.453,62.3l1.518.639a.646.646,0,0,0,.879-.4l.879-2.236A.508.508,0,0,0,44.488,59.508Zm-6.629,2.316a3.989,3.989,0,0,1-5.272-2.157,3.975,3.975,0,0,1,7.348-3.035A3.829,3.829,0,0,1,37.859,61.824Z" transform="translate(-5.591 -17.655)" fill="#eba43f"/>
  </g>
  <g id="Group_431" data-name="Group 431" transform="translate(14.309)">
    <g id="Group_429" data-name="Group 429" transform="translate(31.76 38.881)">
      <path id="Path_388" data-name="Path 388" d="M74.309,64.75a2.022,2.022,0,0,1-.559,2.8l-2.955,1.917A2.022,2.022,0,0,1,68,68.9L58.015,53.728a2.022,2.022,0,0,1,.559-2.8l2.955-1.917a2.022,2.022,0,0,1,2.8.559Z" transform="translate(-57.679 -48.679)" fill="#7082a4"/>
    </g>
    <g id="Group_430" data-name="Group 430">
      <path id="Path_389" data-name="Path 389" d="M61.034,10.942h0a25.781,25.781,0,0,0-2.875-3.594A12.726,12.726,0,0,0,57.12,6.31,23.915,23.915,0,0,0,40.986,0a21.7,21.7,0,0,0-8.147,1.518,23.4,23.4,0,0,0-4.473,2.236,23.113,23.113,0,0,0-4.473,3.834A23.709,23.709,0,0,0,20.619,12.3h0c-.4.879-.8,1.677-1.118,2.556-.16.479-.319.879-.479,1.358s-.24.879-.4,1.358A10.891,10.891,0,0,0,18.3,18.93a24.189,24.189,0,0,0,2.636,16.054h0a13.893,13.893,0,0,0,.879,1.438,24.008,24.008,0,0,0,10.863,9.105,17.687,17.687,0,0,0,3.834,1.2,23.173,23.173,0,0,0,5.272.559,22.035,22.035,0,0,0,6.869-1.038A22.292,22.292,0,0,0,54.4,43.53,24.237,24.237,0,0,0,59.2,39.377,23.58,23.58,0,0,0,61.034,10.942ZM42.9,42.492c-.4,0-.719.08-1.118.08A19.188,19.188,0,0,1,22.775,23.243a18.945,18.945,0,0,1,.719-5.192A17.393,17.393,0,0,1,27.008,11.5h0A19.16,19.16,0,0,1,31,7.907a18.207,18.207,0,0,1,9.9-2.955A19.072,19.072,0,0,1,56.8,13.658,18.782,18.782,0,0,1,54.484,37.3a15.614,15.614,0,0,1-2.8,2.236,16.709,16.709,0,0,1-4.553,2.077A14.242,14.242,0,0,1,42.9,42.492Z" transform="translate(-17.915)" fill="#232d5f"/>
    </g>
  </g>
</svg>
