<svg id="Gestao_de_Dados_02" data-name="Gestao de Dados 02" xmlns="http://www.w3.org/2000/svg" width="61.514" height="60.196" viewBox="0 0 61.514 60.196">
  <path id="Path_447" data-name="Path 447" d="M48.4,9.72,51.175,11.6l.327-.408a6.218,6.218,0,0,0,1.715.245,5.682,5.682,0,0,0,5.717-5.717,5.717,5.717,0,0,0-11.435,0,6.147,6.147,0,0,0,1.225,3.594Zm4.819-6.371a2.369,2.369,0,1,1-2.369,2.369A2.37,2.37,0,0,1,53.217,3.349Z" transform="translate(-8.703)" fill="#f58c43"/>
  <rect id="Rectangle_466" data-name="Rectangle 466" width="3.349" height="3.349" transform="matrix(0.565, -0.825, 0.825, 0.565, 35.905, 15.274)" fill="#f58c43"/>
  <rect id="Rectangle_467" data-name="Rectangle 467" width="3.675" height="3.349" transform="translate(41.002 25.238)" fill="#eba43f"/>
  <rect id="Rectangle_468" data-name="Rectangle 468" width="3.675" height="3.349" transform="translate(48.271 25.238)" fill="#eba43f"/>
  <path id="Path_448" data-name="Path 448" d="M16.907,39.968l-1.062.653A8.948,8.948,0,0,0,9.066,37.6,8.925,8.925,0,0,0,0,46.584a9.066,9.066,0,0,0,18.132,0,8.051,8.051,0,0,0-.572-3.1l1.062-.653Z" transform="translate(0 -6.889)" fill="#77bb6b"/>
  <path id="Path_449" data-name="Path 449" d="M40.735,32.317a5.717,5.717,0,1,0-5.717,5.717A5.682,5.682,0,0,0,40.735,32.317Z" transform="translate(-5.369 -4.874)" fill="#fff"/>
  <path id="Path_450" data-name="Path 450" d="M53.969,8.837A2.369,2.369,0,1,0,51.6,6.469,2.37,2.37,0,0,0,53.969,8.837Z" transform="translate(-9.454 -0.751)" fill="#fff"/>
  <circle id="Ellipse_15" data-name="Ellipse 15" cx="5.146" cy="5.146" r="5.146" transform="translate(35.04 46.393)" fill="#fff"/>
  <path id="Path_451" data-name="Path 451" d="M42.567,43.594a12.234,12.234,0,0,0-1.8.163l-3.594-8.249a9.205,9.205,0,0,0,4-7.514,8.809,8.809,0,0,0-2.7-6.453l.653-.98L36.36,18.682l-.653.98a9.231,9.231,0,0,0-3.675-.735,8.567,8.567,0,0,0-3.594.735L24.19,13.455a6.194,6.194,0,0,0,1.552-4.084A6.379,6.379,0,0,0,19.371,3,6.31,6.31,0,0,0,13,9.289a6.379,6.379,0,0,0,6.371,6.371,5.639,5.639,0,0,0,2.042-.327l4.247,6.207a9.137,9.137,0,0,0-2.7,6.453,8.051,8.051,0,0,0,.572,3.1l-1.307.735,1.715,2.94,1.307-.735a9.063,9.063,0,0,0,6.861,3.1,8.228,8.228,0,0,0,2.042-.245l3.594,8.249A8.571,8.571,0,1,0,51.225,52.17,8.7,8.7,0,0,0,42.567,43.594Zm-16.254-15.6a5.717,5.717,0,1,1,5.717,5.717A5.788,5.788,0,0,1,26.313,27.993Zm16.254,29.24a5.146,5.146,0,1,1,5.146-5.146A5.124,5.124,0,0,1,42.567,57.234Z" transform="translate(-2.382 -0.55)" fill="#232d5f"/>
  <circle id="Ellipse_16" data-name="Ellipse 16" cx="4.166" cy="4.166" r="4.166" transform="matrix(0.027, -1, 1, 0.027, 52.959, 30.97)" fill="#eba43f"/>
</svg>
