<svg id="Gestão_de_Manutenção_-_MEGA_01" data-name="Gestão de Manutenção - MEGA 01" xmlns="http://www.w3.org/2000/svg" width="58.936" height="59.006" viewBox="0 0 58.936 59.006">
  <path id="Path_440" data-name="Path 440" d="M58.935,47.787H0V11.148A11.122,11.122,0,0,1,11.148,0H47.716A11.137,11.137,0,0,1,58.935,11.148Z" fill="#232d5f"/>
  <g id="Group_534" data-name="Group 534" transform="translate(4.828 20.509)">
    <path id="Path_441" data-name="Path 441" d="M17.1,43.532V37.5l-2.911,4.9h-1.42L9.782,37.639v5.894H6.8V32.1H9.427L13.4,38.7l3.905-6.6h2.627V43.532Z" transform="translate(-6.8 -31.816)" fill="#fff"/>
    <path id="Path_442" data-name="Path 442" d="M37.215,40.925H30.824a1.915,1.915,0,0,0,.781,1.065,2.8,2.8,0,0,0,1.42.355,2.371,2.371,0,0,0,1.065-.213,3.252,3.252,0,0,0,.923-.568l1.633,1.7a4.922,4.922,0,0,1-3.763,1.42,6.3,6.3,0,0,1-2.7-.568,4.135,4.135,0,0,1-1.846-1.633,4.615,4.615,0,0,1,0-4.686,4.7,4.7,0,0,1,1.7-1.633,4.763,4.763,0,0,1,2.485-.568,5.492,5.492,0,0,1,2.414.568,4.514,4.514,0,0,1,1.7,1.562,4.454,4.454,0,0,1,.639,2.485C37.286,40.144,37.286,40.428,37.215,40.925Zm-5.823-2.769a2,2,0,0,0-.639,1.136h3.621a1.674,1.674,0,0,0-.639-1.136,1.792,1.792,0,0,0-1.207-.426A1.613,1.613,0,0,0,31.392,38.156Z" transform="translate(-12.86 -32.831)" fill="#fff"/>
    <path id="Path_443" data-name="Path 443" d="M50.837,37.452h2.84v4.757A6.1,6.1,0,0,1,51.4,43.274a7.943,7.943,0,0,1-2.556.355,6.649,6.649,0,0,1-3.2-.781,5.944,5.944,0,0,1-2.272-2.13,5.6,5.6,0,0,1-.781-3.053,6.294,6.294,0,0,1,.781-3.053,5.482,5.482,0,0,1,2.272-2.13A7.151,7.151,0,0,1,48.92,31.7a7.236,7.236,0,0,1,2.84.568,5.205,5.205,0,0,1,2.13,1.562l-2.059,1.846A3.639,3.639,0,0,0,49.062,34.4a2.951,2.951,0,0,0-2.343.923,3.33,3.33,0,0,0-.923,2.343,3.373,3.373,0,0,0,.426,1.7A2.913,2.913,0,0,0,47.357,40.5a3.373,3.373,0,0,0,1.7.426,4.944,4.944,0,0,0,1.775-.355V37.452Z" transform="translate(-17.18 -31.7)" fill="#fff"/>
    <path id="Path_444" data-name="Path 444" d="M68.118,41.331H63.289l-.923,2.2H59.1L64.141,32.1h3.2l5.041,11.432H69.041Zm-.923-2.414L65.7,35.3l-1.491,3.621Z" transform="translate(-21.964 -31.816)" fill="#fff"/>
  </g>
  <path id="Path_445" data-name="Path 445" d="M19.669,67.3V78.448h-8.45A11.182,11.182,0,0,1,0,67.3Z" transform="translate(0 -19.513)" fill="#f58c43"/>
  <rect id="Rectangle_465" data-name="Rectangle 465" width="19.669" height="11.219" transform="translate(19.669 47.787)" fill="#eba43f"/>
  <path id="Path_446" data-name="Path 446" d="M74.969,67.3A11.152,11.152,0,0,1,63.821,78.448H55.3V67.3Z" transform="translate(-16.033 -19.513)" fill="#77bb6b"/>
</svg>
