<svg xmlns="http://www.w3.org/2000/svg" width="68.02" height="49.817" viewBox="0 0 68.02 49.817">
  <g id="Historiador_03" data-name="Historiador 03" transform="translate(0)">
    <path id="Path_452" data-name="Path 452" d="M.147,46.835,3.471,32.9,6.844,18.92a5.841,5.841,0,0,1,.733-1.711A7.022,7.022,0,0,1,11,14.324c.147-.049.342-.1.489-.147A5.452,5.452,0,0,1,13,13.933H61.11v-2a5.008,5.008,0,0,0-4.987-4.987H29.04L22.1,0H4.987A5.008,5.008,0,0,0,0,4.987V46.835a2.38,2.38,0,0,0,.049.587c0-.147.049-.293.049-.44C.1,46.933.147,46.884.147,46.835Z" fill="#7082a4"/>
    <path id="Path_453" data-name="Path 453" d="M69.706,33.236a1.865,1.865,0,0,0-1.564-.636H15.049A4.79,4.79,0,0,0,10.8,36.071L4,64.622a1.747,1.747,0,0,0,.44,1.271,1.952,1.952,0,0,0,1.516.587H60.124a2.992,2.992,0,0,0,2.884-2.2L70,35.142A2.434,2.434,0,0,0,69.706,33.236Z" transform="translate(-2.044 -16.662)" fill="#232d5f"/>
    <path id="Path_454" data-name="Path 454" d="M66.312,60.836,81.125,48.565a1.007,1.007,0,0,1,1.418.147h0A1.007,1.007,0,0,1,82.4,50.13L67.583,62.4a1.007,1.007,0,0,1-1.418-.147h0a1.007,1.007,0,0,1,.147-1.418" transform="translate(-33.704 -24.708)" fill="#4c9c2e" fill-rule="evenodd"/>
    <path id="Path_455" data-name="Path 455" d="M48.627,67.3H67.84a1.033,1.033,0,0,1,1.027,1.027h0a1.033,1.033,0,0,1-1.027,1.027H48.627A1.033,1.033,0,0,1,47.6,68.327h0A1.067,1.067,0,0,1,48.627,67.3" transform="translate(-24.329 -34.398)" fill="#ffa400" fill-rule="evenodd"/>
    <path id="Path_456" data-name="Path 456" d="M41.683,39.944,62.314,56.712a1.007,1.007,0,0,1,.147,1.418h0a1.007,1.007,0,0,1-1.418.147L40.412,41.508a1.007,1.007,0,0,1-.147-1.418h0a.966.966,0,0,1,1.418-.147" transform="translate(-20.466 -20.291)" fill="#fff"/>
    <path id="Path_457" data-name="Path 457" d="M72.22,55.5l4.742,18.626a.985.985,0,0,1-.733,1.222h0a.985.985,0,0,1-1.222-.733L70.264,55.987A.985.985,0,0,1,71,54.764h0a1.007,1.007,0,0,1,1.222.733" transform="translate(-35.896 -27.974)" fill="#ff5100" fill-rule="evenodd"/>
  </g>
</svg>
