<svg id="Historiador_02" data-name="Historiador 02" xmlns="http://www.w3.org/2000/svg" width="55.779" height="60" viewBox="0 0 55.779 60">
  <circle id="Ellipse_11" data-name="Ellipse 11" cx="16.583" cy="16.583" r="16.583" transform="translate(11.357 11.357)" fill="#77bb6b"/>
  <path id="Path_421" data-name="Path 421" d="M27.94,0A28.009,28.009,0,0,0,0,27.94,27.62,27.62,0,0,0,7.538,46.935a27.885,27.885,0,0,0,17.487,8.744V59.2a.782.782,0,0,0,.3.7.369.369,0,0,0,.3.1.76.76,0,0,0,.4-.1l8.844-6.332a.972.972,0,0,0,0-1.407L26.03,45.829a.486.486,0,0,0-.7,0,.782.782,0,0,0-.3.7v3.116A22.06,22.06,0,0,1,6.03,27.94a21.91,21.91,0,1,1,43.819,0,21.2,21.2,0,0,1-4.523,13.266,22.294,22.294,0,0,1-3.719,3.819,3,3,0,1,0,3.819,4.623,26.288,26.288,0,0,0,4.623-4.824A27.891,27.891,0,0,0,27.94,0Z" fill="#232d5f"/>
  <path id="Path_422" data-name="Path 422" d="M34.25,39.731a1.537,1.537,0,0,0,.6-2.211l-4.121-7.538a3.79,3.79,0,0,0,.7-2.111,3.733,3.733,0,0,0-2.01-3.317V15.208a1.608,1.608,0,1,0-3.216,0v9.347a3.665,3.665,0,0,0,1.608,6.935h0l4.221,7.638A1.537,1.537,0,0,0,34.25,39.731Z" transform="translate(0.122 0.068)" fill="#fff"/>
</svg>
