<svg xmlns="http://www.w3.org/2000/svg" width="53.858" height="60" viewBox="0 0 53.858 60">
  <g id="Mapa_TAESA_01" data-name="Mapa TAESA 01" transform="translate(-0.06 -0.023)">
    <g id="Group_436" data-name="Group 436" transform="translate(0.06 0.023)">
      <path id="Path_390" data-name="Path 390" d="M31.707,52.832l3.775,1.208,7.625,2.416,6.417-2.34,3.02-7.549L39.105,45.434Zm-6.87-3.926-.755,1.51,2.038.679,1.283.377Zm5.889,20.987h.3L41.445,58.645l-6.568-2.114h0l-12.607-4L15.4,55.248l.981,7.021.755,5.511A42.08,42.08,0,0,0,30.725,69.894ZM53.071,45.132,53,45.283,40.917,44.3l3.548-4a26.049,26.049,0,0,1,7.474,3.926A7.422,7.422,0,0,1,53.071,45.132Z" transform="translate(-3.819 -9.894)" fill="#eba43f" fill-rule="evenodd"/>
      <path id="Path_391" data-name="Path 391" d="M62.96,53.134A13.055,13.055,0,0,0,59.789,48l-2.944,7.4ZM51.56,69.063c7.4-3.02,11.777-8.078,11.777-13.287l-15.25,5.662-2.869,3.1ZM38.5,71.781l5.813-6.341,5.813,4.152A40.822,40.822,0,0,1,38.5,71.781Z" transform="translate(-9.48 -11.781)" fill="#f58c43" fill-rule="evenodd"/>
      <path id="Path_392" data-name="Path 392" d="M1.6,59.322c1.963,3.246,5.587,6.039,10.494,8L10.433,55.774ZM9.149,42.185a17.448,17.448,0,0,0-3.4,2.189C.619,48.225-.816,52.83.543,57.058L17.6,50.339l1.057-2.265Zm9.286,4.152-7.927-4.832c.679-.3,1.434-.6,2.189-.906l.3.3Z" transform="translate(-0.06 -9.967)" fill="#77bb6b" fill-rule="evenodd"/>
      <path id="Path_393" data-name="Path 393" d="M41.122,30.128A17.283,17.283,0,0,0,41.575,5.29C25.495-10.79,1.11,13.595,17.19,29.675L29.345,41.9Z" transform="translate(-2.967 -0.023)" fill="#232d5f" fill-rule="evenodd"/>
    </g>
    <circle id="Ellipse_8" data-name="Ellipse 8" cx="8.531" cy="8.531" r="8.531" transform="translate(17.831 8.838)" fill="#fff"/>
  </g>
</svg>
