<svg id="Mapa_TAESA_03" data-name="Mapa TAESA 03" xmlns="http://www.w3.org/2000/svg" width="59.908" height="60" viewBox="0 0 59.908 60">
  <g id="Group_507" data-name="Group 507">
    <g id="Group_449" data-name="Group 449">
      <g id="Group_448" data-name="Group 448">
        <g id="Group_447" data-name="Group 447">
          <g id="Group_446" data-name="Group 446">
            <g id="Group_445" data-name="Group 445">
              <g id="Group_444" data-name="Group 444">
                <g id="Group_443" data-name="Group 443">
                  <g id="Group_442" data-name="Group 442">
                    <g id="Group_441" data-name="Group 441">
                      <path id="Path_398" data-name="Path 398" d="M59.908,30A29.954,29.954,0,1,1,30,0,30.011,30.011,0,0,1,59.908,30Z" fill="#232d5f"/>
                    </g>
                  </g>
                </g>
              </g>
            </g>
          </g>
        </g>
      </g>
    </g>
    <g id="Group_457" data-name="Group 457" transform="translate(22.466 24.679)">
      <g id="Group_456" data-name="Group 456">
        <g id="Group_455" data-name="Group 455">
          <g id="Group_454" data-name="Group 454">
            <g id="Group_453" data-name="Group 453">
              <g id="Group_452" data-name="Group 452">
                <g id="Group_451" data-name="Group 451">
                  <g id="Group_450" data-name="Group 450">
                    <path id="Path_399" data-name="Path 399" d="M30,27.634c-.367,2.477-4.312,2.294-5.321,4.5-.734,2.11.734,4.5,2.294,5.688,4.128,2.661,7.706.55,7.706,7.156,0,3.394-3.028,10.183,1.284,11.927,3.578,1.284,9.633-4.128,11.376-6.239,1.284-1.927,1.743-3.028,3.578-4.5,2.294-1.927,3.028-2.11.55-3.761-1.927-1.284-3.211-.734-3.945-3.394-.367-1.284.917-3.394.55-4.954-.55-3.578-5.138-4.128-8.349-5.688-3.394-1.468-5.5-1.468-9.083-1.468Z" transform="translate(-24.488 -26.9)" fill="#eba43f"/>
                  </g>
                </g>
              </g>
            </g>
          </g>
        </g>
      </g>
    </g>
    <g id="Group_465" data-name="Group 465" transform="translate(27.614 7.798)">
      <g id="Group_464" data-name="Group 464">
        <g id="Group_463" data-name="Group 463">
          <g id="Group_462" data-name="Group 462">
            <g id="Group_461" data-name="Group 461">
              <g id="Group_460" data-name="Group 460">
                <g id="Group_459" data-name="Group 459">
                  <g id="Group_458" data-name="Group 458">
                    <path id="Path_400" data-name="Path 400" d="M52.669,8.5c-2.11,1.1-5.321,1.56-7.064,2.11-4.954,1.927-2.294,1.743-2.661,5.872A2.837,2.837,0,0,0,46.155,15.2c1.284,3.761-3.394,3.028-5.138,3.028-.917,0-1.743-.367-2.661,0-1.468.734.367,3.394-1.743,1.468-.917-.55-.183-2.294-1.56-3.211a7.9,7.9,0,0,0-4.128-.183c-2.294,1.468.734,3.945,2.477,5.321,1.284,1.1.734,1.468,2.844,1.927,1.1.183,2.294-.734,3.394-.367,2.294.55,3.211,2.844,5.688,3.578,3.028.917,4.5.734,5.872,3.761.734,1.927.917,3.945,2.11,6.055,1.927,2.844,4.312,4.679,6.239,1.1.826-1.835.367-3.761,2.661-3.486.092-1.193.183-2.294.183-3.578A30.064,30.064,0,0,0,52.669,8.5Z" transform="translate(-30.1 -8.5)" fill="#f58c43"/>
                  </g>
                </g>
              </g>
            </g>
          </g>
        </g>
      </g>
    </g>
    <g id="Group_473" data-name="Group 473" transform="translate(0 30.275)">
      <g id="Group_472" data-name="Group 472">
        <g id="Group_471" data-name="Group 471">
          <g id="Group_470" data-name="Group 470">
            <g id="Group_469" data-name="Group 469">
              <g id="Group_468" data-name="Group 468">
                <g id="Group_467" data-name="Group 467">
                  <g id="Group_466" data-name="Group 466">
                    <path id="Path_401" data-name="Path 401" d="M12.752,46.578c-.55-.55-.917-3.028-1.468-3.761-.183-.55-1.1-.55-1.468-.917-.367-.55.183-1.743-.55-2.11-1.1-.734-2.294-.367-3.394-.734-1.927-.55-.917.183-2.477-1.468C2.2,36.394,1.376,34.193,0,33A29.956,29.956,0,0,0,12.385,56.945,19.36,19.36,0,0,1,15.6,54.009c1.743-1.468,4.5-1.743,3.211-4.5C17.706,46.394,14.312,47.954,12.752,46.578Z" transform="translate(0 -33)" fill="#77bb6b"/>
                  </g>
                </g>
              </g>
            </g>
          </g>
        </g>
      </g>
    </g>
    <g id="Group_481" data-name="Group 481" transform="translate(0.275 10.092)">
      <g id="Group_480" data-name="Group 480">
        <g id="Group_479" data-name="Group 479">
          <g id="Group_478" data-name="Group 478">
            <g id="Group_477" data-name="Group 477">
              <g id="Group_476" data-name="Group 476">
                <g id="Group_475" data-name="Group 475">
                  <g id="Group_474" data-name="Group 474">
                    <path id="Path_402" data-name="Path 402" d="M12.869,14.211C11.034,12.835,9.474,11.367,7.639,11A29.272,29.272,0,0,0,.3,26.872c1.743,0,1.1,3.211,3.486,2.11.55-.183,1.927-3.028,2.477-3.761,1.1-1.1,8.349-3.761,5.138-5.5a2.065,2.065,0,0,1,1.468-.917,2.639,2.639,0,0,0,2.11,2.11C15.713,17.422,15.713,16.138,12.869,14.211Z" transform="translate(-0.3 -11)" fill="#eba43f"/>
                  </g>
                </g>
              </g>
            </g>
          </g>
        </g>
      </g>
    </g>
    <g id="Group_489" data-name="Group 489" transform="translate(8.991 5.046)">
      <g id="Group_488" data-name="Group 488">
        <g id="Group_487" data-name="Group 487">
          <g id="Group_486" data-name="Group 486">
            <g id="Group_485" data-name="Group 485">
              <g id="Group_484" data-name="Group 484">
                <g id="Group_483" data-name="Group 483">
                  <g id="Group_482" data-name="Group 482">
                    <path id="Path_403" data-name="Path 403" d="M12.094,10.362A16.171,16.171,0,0,0,15.3,7.518,2.256,2.256,0,0,0,14.02,5.5,25.849,25.849,0,0,0,9.8,8.986C10.534,9.628,11.084,10.362,12.094,10.362Z" transform="translate(-9.8 -5.5)" fill="#77bb6b"/>
                  </g>
                </g>
              </g>
            </g>
          </g>
        </g>
      </g>
    </g>
    <g id="Group_497" data-name="Group 497" transform="translate(17.721)">
      <g id="Group_496" data-name="Group 496">
        <g id="Group_495" data-name="Group 495">
          <g id="Group_494" data-name="Group 494">
            <g id="Group_493" data-name="Group 493">
              <g id="Group_492" data-name="Group 492">
                <g id="Group_491" data-name="Group 491">
                  <g id="Group_490" data-name="Group 490">
                    <path id="Path_404" data-name="Path 404" d="M30.953,0a29.678,29.678,0,0,0-11.1,2.385,3.719,3.719,0,0,0,.826.459c-1.284,2.11-2.018,2.569-.55,5.138,1.009,2.11,2.569,1.835,4.4,3.578,1.376-1.56.275-2.11.734-3.578.275-1.376,1.56-2.11,2.844-2.661,2.018-.826,5.5.183,5.138-2.844A4.028,4.028,0,0,0,30.953,0Z" transform="translate(-19.316)" fill="#f58c43"/>
                  </g>
                </g>
              </g>
            </g>
          </g>
        </g>
      </g>
    </g>
    <g id="Group_506" data-name="Group 506" transform="translate(27.151 6.756)">
      <g id="Group_505" data-name="Group 505">
        <g id="Group_504" data-name="Group 504">
          <g id="Group_503" data-name="Group 503">
            <g id="Group_502" data-name="Group 502">
              <g id="Group_501" data-name="Group 501">
                <g id="Group_500" data-name="Group 500">
                  <g id="Group_499" data-name="Group 499">
                    <g id="Group_498" data-name="Group 498">
                      <path id="Path_405" data-name="Path 405" d="M29.967,7.4c1.56-.275,1.743,1.284,3.3.826,1.009,2.569-5.229,2.018-3.3-.734V7.4Z" transform="translate(-29.595 -7.364)" fill="#232d5f"/>
                    </g>
                  </g>
                </g>
              </g>
            </g>
          </g>
        </g>
      </g>
    </g>
  </g>
  <g id="Group_509" data-name="Group 509" transform="translate(16.33 12.477)">
    <path id="Path_406" data-name="Path 406" d="M45.139,27.27a13.67,13.67,0,0,0-27.339,0c0,7.523,13.67,21.376,13.67,21.376S45.139,34.793,45.139,27.27Z" transform="translate(-17.8 -13.6)" fill="#fff"/>
    <g id="Group_508" data-name="Group 508" transform="translate(7.982 7.982)">
      <circle id="Ellipse_10" data-name="Ellipse 10" cx="5.688" cy="5.688" r="5.688" fill="#232d5f"/>
    </g>
  </g>
</svg>
