<svg xmlns="http://www.w3.org/2000/svg" width="59.873" height="60" viewBox="0 0 59.873 60">
  <g id="Mapa_TAESA_02" data-name="Mapa TAESA 02" transform="translate(0 -0.025)">
    <g id="XMLID_1_" transform="translate(0 0.025)">
      <path id="Path_394" data-name="Path 394" d="M11.727,50.932A45.78,45.78,0,0,0,6.191,54.5L5.1,55.229,0,51.879,15.369,41.9c.073.583.219,1.093.291,1.675.291,1.748.51,3.5.8,5.827A12.812,12.812,0,0,0,11.727,50.932Z" transform="translate(0 -11.399)" fill="#eba43f" fill-rule="evenodd"/>
      <path id="Path_395" data-name="Path 395" d="M22.391,39.753c-.073-.583-.219-1.238-.291-1.821L35.939,28.9l14.422,9.4-.437,1.02c-4.37,9.4-8.085,17.408-16.1,11.363-4.37-3.278-7.5-4.807-10.561-4.807C22.974,43.322,22.683,41.5,22.391,39.753Z" transform="translate(-6.003 -7.868)" fill="#7082a4" fill-rule="evenodd"/>
      <path id="Path_396" data-name="Path 396" d="M41.846,62.668a16.976,16.976,0,0,1,6.774,2.768l-15.66,10.2L11.4,61.5c3.569-2.476,6.118-3.933,8.668-4.006,2.768-.146,5.681,1.238,9.833,4.443,4.88,3.715,8.376,3.278,11.29.583C41.409,62.595,41.628,62.595,41.846,62.668Z" transform="translate(-3.097 -15.633)" fill="#f58c43" fill-rule="evenodd"/>
      <path id="Path_397" data-name="Path 397" d="M74.432,52.422,61.1,61.09a16.324,16.324,0,0,0-7.5-3.351c2.476-2.841,4.516-7.284,6.7-12.018l.656-1.384.073-.219L61.1,43.9Z" transform="translate(-14.559 -11.942)" fill="#77bb6b" fill-rule="evenodd"/>
      <path id="XMLID_2_" d="M20.642,5.542A18.9,18.9,0,0,1,47.374,32.274l-13.329,13.4-13.4-13.4a18.948,18.948,0,0,1,0-26.731Z" transform="translate(-4.108 -0.025)" fill="#232d5f" fill-rule="evenodd"/>
    </g>
    <circle id="Ellipse_9" data-name="Ellipse 9" cx="9.105" cy="9.105" r="9.105" transform="translate(20.904 9.549)" fill="#fff"/>
  </g>
</svg>
