<svg xmlns="http://www.w3.org/2000/svg" width="44.598" height="48.257" viewBox="0 0 44.598 48.257">
  <path id="Negado" d="M39.044,37.151A1.853,1.853,0,1,0,40.9,39a1.86,1.86,0,0,0-1.853-1.853M33.47,22.237l.015,18.514c-1.139.273-1.671-.167-4.359.759-1.306.456-2.521.866-3.858,1.306-5.1,1.686-6.834,1.671-11.907,1.671A5.994,5.994,0,0,1,8.76,43c-1.185-1.139-1.154-3.083-.987-5.027-1.261-.577-1.99-2.506-1.853-4.04.061-.653.41-1.185.425-1.625a9.141,9.141,0,0,1-.911-1.2,4.156,4.156,0,0,1-.516-1.655,4.99,4.99,0,0,1,.5-2.764c.152-.334.273-.395.395-.714L5.707,25.9c-.668-.365-.8-.243-1.382-1.412-1.215-2.445-.456-4.83,1.792-5.771,1.473-.623,9.189-.091,11.527-.273.076-3.311-3.372-6.531-2.688-10.783.349-2.157.79-3.493,2.886-3.918a6.36,6.36,0,0,1,1.595-.106c1.321.349,1.321,5.969,3.326,8.672.486.653,1.078,1.185,1.564,1.823,1.048,1.352,3.782,4.769,4.647,5.7a8.223,8.223,0,0,0,2.886,2.217C32.438,22.222,33.015,22.1,33.47,22.237ZM4.082,41.419c-.091-.608-.076-1.124-.137-1.7-.061-.562-1.261-1.5-1.625-3.873a7.535,7.535,0,0,1-.106-1.762c.061-.926.137-.8-.2-1.534a8.611,8.611,0,0,1-.79-2.825c-.228-2.309.486-2.384-.015-3.25-1.5-2.552-1.625-6.121.091-8.4,3.129-4.192,6.272-3.22,11.193-3.326.015-.425-1.139-2.4-1.261-4.678C10.962,4.953,12.39.929,17.645.048c5.559-.926,6.136,3.068,7.169,7.594.592,2.6,1.352,2.9,2.931,4.8,1.458,1.731,3.372,4.541,4.966,5.847.365.289.79.2,1.337.2H38.68c2.111,0,3.842-.167,4.951,1.23a3.309,3.309,0,0,1,.942,2.141c.137,1.245.03,13.487.03,15.4,0,1.868.289,4.161-.608,5.559-1.64,2.552-7.837,1.686-10.647,1.686a16.526,16.526,0,0,0-4.982,1.215C21.791,47.722,5.616,51.686,4.082,41.419Z" transform="translate(44.647 48.17) rotate(180)" fill="#d95f5f" fill-rule="evenodd"/>
</svg>
