<svg xmlns="http://www.w3.org/2000/svg" width="54.3" height="57.3" viewBox="0 0 54.3 57.3">
  <g id="PDF_icone" data-name="PDF icone" transform="translate(-1157 -1731)">
    <g id="Group_219_1_" transform="translate(1182 1749)">
      <g id="Group_217_1_">
        <path id="Path_202_1_" d="M25.2,2.6H11A2.308,2.308,0,0,1,8.7.4V-13.8a2.348,2.348,0,0,1,2.4-2.3,2.348,2.348,0,0,1,2.3,2.4V-1.8H25.3A2.308,2.308,0,0,1,27.6.4V.5a2.318,2.318,0,0,1-2.4,2.1Z" fill="#e61f00"/>
        <path id="Path_203_1_" d="M11-13.5,24.8.3V34.7H-10.5V-13.5H11M11-18H-10.5A4.481,4.481,0,0,0-15-13.5h0V34.8a4.481,4.481,0,0,0,4.5,4.5H24.8a4.481,4.481,0,0,0,4.5-4.5h0V.4A4.816,4.816,0,0,0,28-2.8L14.2-16.7A4.816,4.816,0,0,0,11-18Z" fill="#e61f00"/>
      </g>
    </g>
    <g id="Group_335" data-name="Group 335">
      <path id="Rectangle_352_1_" d="M1161,1758.2h31a4.012,4.012,0,0,1,4,4v11a4.012,4.012,0,0,1-4,4h-31a4.012,4.012,0,0,1-4-4v-11A3.949,3.949,0,0,1,1161,1758.2Z" fill="#de1d00"/>
      <g id="Group_334" data-name="Group 334">
        <path id="Path_251" data-name="Path 251" d="M1166.2,1769.5v3.6h-2v-10h4a4,4,0,0,1,2.7.9,3.145,3.145,0,0,1,0,4.6,4,4,0,0,1-2.7.9h-2Zm0-1.5h2a1.728,1.728,0,0,0,1.3-.5,2,2,0,0,0,0-2.4,1.727,1.727,0,0,0-1.3-.5h-2Z" fill="#fff"/>
        <path id="Path_252" data-name="Path 252" d="M1173.4,1773.2v-10h3.4a4.1,4.1,0,0,1,4.2,4.2v1.6a4.1,4.1,0,0,1-4.2,4.2h-3.4Zm2-8.5v6.9h1.3a2.06,2.06,0,0,0,1.7-.7,2.884,2.884,0,0,0,.6-1.9v-1.7a2.883,2.883,0,0,0-.6-1.9,2.06,2.06,0,0,0-1.7-.7h-1.3Z" fill="#fff"/>
        <path id="Path_253" data-name="Path 253" d="M1188.7,1769h-4.2v4.1h-2v-10h6.9v1.5h-4.9v2.7h4.2Z" fill="#fff"/>
      </g>
    </g>
  </g>
</svg>
