<svg xmlns="http://www.w3.org/2000/svg" width="59.425" height="49.8" viewBox="0 0 59.425 49.8">
  <g id="Preenchimento_de_Formulário" data-name="Preenchimento de Formulário" transform="translate(0)">
    <path id="Path_258" data-name="Path 258" d="M24.2,30.2H19.6V19.6H40A2.3,2.3,0,0,0,40,15H4.5V5A.472.472,0,0,1,5,4.5H44.8a.472.472,0,0,1,.5.5v6.3a2.3,2.3,0,1,0,4.6,0V5a5.015,5.015,0,0,0-5-5H5A5.081,5.081,0,0,0,0,5V44.7a5.015,5.015,0,0,0,5,5H20.1a2.3,2.3,0,0,0,0-4.6h-.5V34.7h4.6a2.263,2.263,0,0,0,2.3-2.3A2.182,2.182,0,0,0,24.2,30.2ZM4.5,19.6H15.1V30.2H4.5ZM15.1,45.3H5a.472.472,0,0,1-.5-.5V34.7H15.1Z" fill="#7082a4"/>
    <path id="Path_259" data-name="Path 259" d="M58.6,24.6l-6.2-6.1a2.837,2.837,0,0,0-4,0L27.2,39.6V47A2.862,2.862,0,0,0,30,49.8h7.4L58.6,28.6A2.836,2.836,0,0,0,58.6,24.6ZM31.8,45.2V41.5l3.7,3.7Zm7-3.3-3.7-3.7L50.4,22.9l3.7,3.7Z" fill="#77bb6b"/>
  </g>
</svg>
