<svg xmlns="http://www.w3.org/2000/svg" width="51.523" height="50.259" viewBox="0 0 51.523 50.259">
  <g id="Relatório_de_Manutenção" data-name="Relatório de Manutenção" transform="translate(0.022 0.033)">
    <g id="Group_558" data-name="Group 558" transform="translate(-0.022 2.451)">
      <path id="Path_499" data-name="Path 499" d="M16.871,28.071,14.2,25.4,35.144,5.3l1.827,1.827Z" transform="translate(5.791 -0.288)" fill="#7082a4"/>
      <path id="Path_500" data-name="Path 500" d="M32,9.7l-4.5,1.124h0l1.125-4.5A2.558,2.558,0,0,1,30.171,4.5l5.341-2.671c.422-.141.843-.141.984.141h0c.281.141.281.562.141.984l-2.811,5.2A2.291,2.291,0,0,1,32,9.7Z" transform="translate(11.186 -1.734)" fill="#7082a4"/>
      <path id="Path_501" data-name="Path 501" d="M14.206,38.174c-6.747,6.747-9.98,5.9-12.369,3.374-2.53-2.53-3.373-5.763,3.373-12.369C11.957,22.431,23.624,14.84,26.154,17.23,28.684,19.76,20.953,31.427,14.206,38.174Z" transform="translate(0.022 4.369)" fill="#77bb6b"/>
      <path id="Path_502" data-name="Path 502" d="M21.4,21.7c-.7.7-2.53,0-4.076-1.546s-2.249-3.373-1.546-4.076,2.53,0,4.076,1.546S22.1,21,21.4,21.7Z" transform="translate(6.321 3.973)" fill="#e67e22"/>
    </g>
    <path id="Path_503" data-name="Path 503" d="M38.321,29.11,22.015,12.8a10.914,10.914,0,0,0-2.811-9.7A10.455,10.455,0,0,0,10.77.013c-.7,0-.984.843-.422,1.406l5.2,5.2-1.687,6.044L7.819,14.21l-5.2-5.2a.893.893,0,0,0-1.406.422,10.577,10.577,0,0,0,3.655,9.137A10.8,10.8,0,0,0,14,20.957L30.308,37.262A10.518,10.518,0,0,0,41.553,50.054c.7,0,.984-.843.422-1.406l-5.2-5.2L38.321,37.4l6.044-1.546,5.2,5.2a.893.893,0,0,0,1.406-.422,10.58,10.58,0,0,0-3.092-8.574A10.257,10.257,0,0,0,38.321,29.11Z" transform="translate(0.484 0)" fill="#232d5f"/>
    <path id="Path_504" data-name="Path 504" d="M29.809,28.709h0a2.038,2.038,0,0,1-2.952,0L13.083,14.934a2.038,2.038,0,0,1,0-2.952h0a2.038,2.038,0,0,1,2.952,0L29.809,25.758A2.038,2.038,0,0,1,29.809,28.709Z" transform="translate(5.059 4.617)" fill="#fff"/>
  </g>
</svg>
