<svg xmlns="http://www.w3.org/2000/svg" width="55.225" height="58.826" viewBox="0 0 55.225 58.826">
  <g id="Sistema_de_Diagnóstico" data-name="Sistema de Diagnóstico" transform="translate(0.2)">
    <path id="Path_460" data-name="Path 460" d="M0,42.46V56.466c0,3.121,5.282,5.682,11.845,5.682S23.69,59.588,23.69,56.466V42.3C19.128,42.3,5.923,42.46,0,42.46Z" transform="translate(-0.04 -8.445)" fill="#7f5c08"/>
    <path id="Path_461" data-name="Path 461" d="M44.975.16,29.448.08,13.841,0A2.869,2.869,0,0,0,10.96,2.881L10.8,39.3a2.869,2.869,0,0,0,2.881,2.881l15.607.08,15.527.08A2.869,2.869,0,0,0,47.7,39.457l.16-36.416A2.869,2.869,0,0,0,44.975.16Z" transform="translate(-2.196)" fill="#7082a4"/>
    <path id="Path_462" data-name="Path 462" d="M19.86,16.5a.56.56,0,1,0,0,1.12l22.33.08a.56.56,0,0,0,0-1.12Z" transform="translate(-3.893 -3.294)" fill="#fff"/>
    <path id="Path_463" data-name="Path 463" d="M19.86,11.5a.56.56,0,1,0,0,1.12h8.484a.56.56,0,0,0,0-1.12Z" transform="translate(-3.893 -2.296)" fill="#fff"/>
    <path id="Path_464" data-name="Path 464" d="M19.86,21.7a.56.56,0,1,0,0,1.12l22.33.08a.56.56,0,0,0,0-1.12Z" transform="translate(-3.893 -4.332)" fill="#fff"/>
    <path id="Path_465" data-name="Path 465" d="M19.86,27a.56.56,0,1,0,0,1.12l22.33.08a.56.56,0,1,0,0-1.12Z" transform="translate(-3.893 -5.391)" fill="#fff"/>
    <path id="Path_466" data-name="Path 466" d="M29.7,56.466V42.3" transform="translate(-5.97 -8.445)" fill="#7f5c08"/>
    <path id="Path_467" data-name="Path 467" d="M39.1,37.1V55.428c0,3.121,5.282,5.682,11.845,5.682S62.79,58.549,62.79,55.428V37.1Z" transform="translate(-7.846 -7.407)" fill="#7f5c08"/>
    <g id="Group_542" data-name="Group 542" transform="translate(-0.2 29.693)">
      <path id="Path_468" data-name="Path 468" d="M68.8,48.66h0v0Z" transform="translate(-13.576 -39.376)" fill="#bf890b"/>
      <g id="Group_541" data-name="Group 541">
        <g id="Group_540" data-name="Group 540">
          <path id="Path_469" data-name="Path 469" d="M67.5,57.04l.24-.24Z" transform="translate(-13.316 -41.033)" fill="#bf890b"/>
          <g id="Group_539" data-name="Group 539">
            <path id="Path_470" data-name="Path 470" d="M55.024,40.782V37.1a3.6,3.6,0,0,1-1.04,2.321c-1.361,1.441-3.842,2.561-6.963,3.041a28.675,28.675,0,0,1-3.842.32,22.658,22.658,0,0,1-5.923-.72A10.776,10.776,0,0,1,32.374,39.5a3.6,3.6,0,0,1-1.04-2.321v3.682A3.584,3.584,0,0,0,32.694,43.5c-.32-.08-.64-.24-1.04-.32,0-.08-.08-.16-.08-.24a.078.078,0,0,0-.08-.08c-.08-.16-.08-.32-.16-.48V42.3c0-.16-.08-.32-.08-.56h0v1.281a12.215,12.215,0,0,0-2.4-.24,10.981,10.981,0,0,0-5.122,1.2V41.662a3.6,3.6,0,0,1-1.04,2.321c-1.361,1.441-3.842,2.561-6.963,3.041a28.674,28.674,0,0,1-3.842.32,22.658,22.658,0,0,1-5.923-.72,10.776,10.776,0,0,1-4.882-2.561,3.683,3.683,0,0,1-1.12-2.4v3.682c0,3.121,5.282,5.682,11.845,5.682a23.967,23.967,0,0,0,6.163-.8c-.16.32-.24.72-.4,1.04a2.337,2.337,0,0,1-.72.16h-.16a4.017,4.017,0,0,1-.96.16h-.16c-.24,0-.48.08-.72.08h-.32c-.24,0-.48.08-.64.08H11.805a9.686,9.686,0,0,1-1.521-.08h-.24c-.4,0-.8-.08-1.281-.08h-.24a27.229,27.229,0,0,1-2.721-.56h0c-.08,0-.08,0-.16-.08-.32-.08-.56-.16-.8-.24-.08,0-.16-.08-.32-.08a3.345,3.345,0,0,1-.8-.32c-.08,0-.16-.08-.24-.08L3,49.986c-.08-.08-.16-.08-.24-.16a1.75,1.75,0,0,1-.4-.24c-.08-.08-.16-.08-.24-.16-.16-.08-.24-.16-.4-.24l-.08-.08a4.575,4.575,0,0,1-.64-.56l-.16-.16h0l-.16-.16a1.405,1.405,0,0,0-.32-.4c0-.08-.08-.08-.08-.16-.08-.16-.16-.24-.24-.4a.078.078,0,0,0-.08-.08c-.08-.16-.08-.32-.16-.48v-.08c.16,0,.16-.16.16-.32h0v3.682c0,3.121,5.282,5.682,11.845,5.682h0a22.383,22.383,0,0,0,5.362-.64,3.283,3.283,0,0,0,.08.88,9.442,9.442,0,0,1-1.6.32,28.675,28.675,0,0,1-3.842.32,22.658,22.658,0,0,1-5.923-.72A10.776,10.776,0,0,1,1,53.267a3.183,3.183,0,0,1-.96-1.841v3.281c-.08,2.961,5.2,5.522,11.765,5.522a22.51,22.51,0,0,0,6.4-.88,11.666,11.666,0,0,0,20.969.64,20.8,20.8,0,0,0,4,.32c6.563,0,11.845-2.561,11.845-5.682v-3.6a.722.722,0,0,1-.08.4c0,.16-.08.24-.08.4v.08c-.72,2.161-3.922,3.922-8.244,4.482a14.4,14.4,0,0,0,7.043-2.8,13.125,13.125,0,0,1-6.723,2.721,28.675,28.675,0,0,1-3.842.32c-.96,0-1.841-.08-2.8-.16a2.723,2.723,0,0,0,.08-.8c.88.08,1.761.16,2.641.16,6.563,0,11.845-2.561,11.845-5.682V46.864a3.735,3.735,0,0,1-.96,1.841c-1.361,1.441-3.842,2.561-6.963,3.041a28.674,28.674,0,0,1-3.842.32c-1.04,0-2-.08-2.961-.16-.08-.32-.16-.64-.24-.88a20.771,20.771,0,0,0,3.2.24c6.563,0,11.845-2.561,11.845-5.682V41.9h0a1.563,1.563,0,0,1-.08.56v.08a1.138,1.138,0,0,1-.16.48.078.078,0,0,1-.08.08,1.749,1.749,0,0,1-.24.4c0,.08-.08.08-.08.16a1.405,1.405,0,0,1-.32.4l-.16.16h0l-.08.08a2.122,2.122,0,0,1-.48.4.279.279,0,0,1-.16.08,3.388,3.388,0,0,1-.56.4c-.08,0-.08.08-.16.08a2.006,2.006,0,0,1-.56.32c-.08,0-.08.08-.16.08-.24.08-.4.24-.64.32a.279.279,0,0,0-.16.08,2.843,2.843,0,0,0-.72.32.279.279,0,0,0-.16.08c-.24.08-.56.16-.8.24-.08,0-.16,0-.16.08-.32.08-.56.16-.88.24h-.16a4.017,4.017,0,0,1-.96.16h-.16c-.24,0-.48.08-.72.08h-.32c-.24,0-.48.08-.64.08H43.1a9.686,9.686,0,0,1-1.521-.08h-.24c-.4,0-.8-.08-1.281-.08h-.24a12.761,12.761,0,0,1-2.4-.48c-.48-.48-.96-.96-1.441-1.361a20.97,20.97,0,0,0,7.043,1.12C49.662,46.384,55.024,43.9,55.024,40.782ZM43.979,56.549h0Zm2.641-.24a10.847,10.847,0,0,1-1.6.16A12.029,12.029,0,0,0,46.621,56.308Zm-1.761.16a3,3,0,0,0-.8.08C44.38,56.549,44.62,56.468,44.86,56.468Z" transform="translate(0.2 -37.1)" fill="#bf890b"/>
            <path id="Path_471" data-name="Path 471" d="M67.1,57.44l.24-.24C67.34,57.28,67.18,57.36,67.1,57.44Z" transform="translate(-13.236 -41.113)" fill="#bf890b"/>
          </g>
          <path id="Path_472" data-name="Path 472" d="M67.8,56.72c.08-.08.16-.24.24-.32C67.96,56.48,67.88,56.64,67.8,56.72Z" transform="translate(-13.376 -40.953)" fill="#bf890b"/>
          <path id="Path_473" data-name="Path 473" d="M67.5,57.1Z" transform="translate(-13.316 -41.093)" fill="#bf890b"/>
        </g>
        <path id="Path_474" data-name="Path 474" d="M68.1,56.32a.607.607,0,0,0,.16-.32C68.26,56.08,68.18,56.16,68.1,56.32Z" transform="translate(-13.436 -40.873)" fill="#bf890b"/>
      </g>
      <path id="Path_475" data-name="Path 475" d="M68.8,54.3Z" transform="translate(-13.576 -40.534)" fill="#bf890b"/>
    </g>
    <path id="Path_476" data-name="Path 476" d="M33.664,46.6A9.8,9.8,0,0,0,23.9,56.364v.56A9.741,9.741,0,0,0,43.349,57v-.56A9.7,9.7,0,0,0,33.664,46.6Z" transform="translate(-4.812 -9.304)" fill="#feb70f"/>
    <path id="Path_477" data-name="Path 477" d="M36.522,56.063l-2-.64a2.951,2.951,0,0,1-1.12-.64,1.686,1.686,0,0,1-.4-1.04,1.52,1.52,0,0,1,.64-1.2,2.626,2.626,0,0,1,1.681-.48,3.048,3.048,0,0,1,1.281.24,1.672,1.672,0,0,1,.8.64c0,.08.08.16.08.24a.92.92,0,0,0,.8.64.727.727,0,0,0,.56-.24.675.675,0,0,0,.16-.56V51.741a1.034,1.034,0,0,0-.16-.64c-.08-.16-.24-.16-.48-.16-.16,0-.24,0-.32.08s-.24.16-.32.24c-.24-.08-.48-.24-.72-.32l-.72-.24.08-.8v-.08a1.157,1.157,0,0,0-.16-.56.675.675,0,0,0-.56-.16.727.727,0,0,0-.56.24.788.788,0,0,0-.24.64l-.08.8a4.127,4.127,0,0,0-2.561.96,2.676,2.676,0,0,0-.88,2.161,3.207,3.207,0,0,0,.64,1.841,3.266,3.266,0,0,0,1.681,1.2l1.761.64a5.5,5.5,0,0,1,1.841.88,1.229,1.229,0,0,1,.4,1.04,1.44,1.44,0,0,1-.56,1.2,2.308,2.308,0,0,1-1.521.48,3.583,3.583,0,0,1-1.6-.32,2.3,2.3,0,0,1-1.04-.72c0-.08-.08-.16-.16-.32-.16-.56-.48-.8-.88-.8a.826.826,0,0,0-.88.88v1.441a.978.978,0,0,0,.24.72.909.909,0,0,0,.64.24.6.6,0,0,0,.4-.08c.08-.08.24-.16.32-.32.24.16.56.32.8.48.24.08.56.16.8.24v1.2a1.24,1.24,0,0,0,.16.64c.08.16.24.16.48.16a.623.623,0,0,0,.56-.24c.16-.16.16-.4.24-.64v-1.04a4.621,4.621,0,0,0,2.721-.96A2.854,2.854,0,0,0,39.4,59.5a2.926,2.926,0,0,0-.72-2A3.854,3.854,0,0,0,36.522,56.063Z" transform="translate(-6.229 -9.803)" fill="#232d5f"/>
    <path id="Path_478" data-name="Path 478" d="M11.845,35.7C5.282,35.7,0,38.261,0,41.382A3.6,3.6,0,0,0,1.04,43.7a10.061,10.061,0,0,0,4.882,2.561,22.658,22.658,0,0,0,5.923.72,19.646,19.646,0,0,0,3.842-.32c3.121-.48,5.682-1.6,6.963-3.041A3.6,3.6,0,0,0,23.69,41.3C23.77,38.261,18.408,35.7,11.845,35.7Z" transform="translate(-0.04 -7.127)" fill="#feb70f"/>
    <path id="Path_479" data-name="Path 479" d="M51.045,30.1c-6.563,0-11.845,2.561-11.845,5.682A3.6,3.6,0,0,0,40.24,38.1a10.061,10.061,0,0,0,4.882,2.561,22.658,22.658,0,0,0,5.923.72,19.646,19.646,0,0,0,3.842-.32c3.121-.48,5.682-1.6,6.963-3.041A3.6,3.6,0,0,0,62.89,35.7C62.89,32.581,57.528,30.1,51.045,30.1Z" transform="translate(-7.866 -6.009)" fill="#feb70f"/>
    <path id="Path_480" data-name="Path 480" d="M51.8,31.9c-4.882,0-8.8,1.841-8.8,4.162a2.115,2.115,0,0,0,.8,1.681,8,8,0,0,0,3.6,1.921,18.362,18.362,0,0,0,4.4.56,15.868,15.868,0,0,0,2.8-.24,9.836,9.836,0,0,0,5.2-2.241,2.728,2.728,0,0,0,.8-1.681C60.528,33.741,56.606,31.9,51.8,31.9Z" transform="translate(-8.625 -6.369)" fill="#fec53f"/>
    <path id="Path_481" data-name="Path 481" d="M12.6,37.6c-4.882,0-8.8,1.841-8.8,4.162a2.115,2.115,0,0,0,.8,1.681,8,8,0,0,0,3.6,1.921,18.361,18.361,0,0,0,4.4.56,15.868,15.868,0,0,0,2.8-.24,9.836,9.836,0,0,0,5.2-2.241,2.728,2.728,0,0,0,.8-1.681C21.408,39.441,17.486,37.6,12.6,37.6Z" transform="translate(-0.799 -7.507)" fill="#fec53f"/>
  </g>
</svg>
