<svg xmlns="http://www.w3.org/2000/svg" width="55.3" height="55.3" viewBox="0 0 55.3 55.3">
  <g id="Tabela" transform="translate(0.5 0.5)">
    <rect id="Rectangle_471" data-name="Rectangle 471" width="13.3" height="13.3" transform="translate(13.8 0.5)" fill="#77bb6b" stroke="#fff" stroke-miterlimit="10" stroke-width="2"/>
    <rect id="Rectangle_472" data-name="Rectangle 472" width="13.3" height="13.3" transform="translate(13.8 27.1)" fill="#eba43f" stroke="#fff" stroke-miterlimit="10" stroke-width="2"/>
    <rect id="Rectangle_473" data-name="Rectangle 473" width="13.3" height="13.3" transform="translate(27.1 27.1)" fill="#eba43f" stroke="#fff" stroke-miterlimit="10" stroke-width="2"/>
    <rect id="Rectangle_474" data-name="Rectangle 474" width="13.3" height="13.3" transform="translate(13.8 13.8)" fill="#eba43f" stroke="#fff" stroke-miterlimit="10" stroke-width="2"/>
    <rect id="Rectangle_475" data-name="Rectangle 475" width="13.3" height="13.3" transform="translate(27.1 0.5)" fill="#77bb6b" stroke="#fff" stroke-miterlimit="10" stroke-width="2"/>
    <rect id="Rectangle_476" data-name="Rectangle 476" width="13.3" height="13.3" transform="translate(27.1 13.8)" fill="#77bb6b" stroke="#fff" stroke-miterlimit="10" stroke-width="2"/>
    <path id="Path_514" data-name="Path 514" d="M13.8.5H6.6A6.061,6.061,0,0,0,.5,6.6v7.2H13.8Z" fill="#eba43f" stroke="#fff" stroke-miterlimit="10" stroke-width="2"/>
    <rect id="Rectangle_477" data-name="Rectangle 477" width="13.3" height="13.3" transform="translate(13.8 40.5)" fill="#f58c43" stroke="#fff" stroke-miterlimit="10" stroke-width="2"/>
    <rect id="Rectangle_478" data-name="Rectangle 478" width="13.3" height="13.3" transform="translate(40.5 27.1)" fill="#77bb6b" stroke="#fff" stroke-miterlimit="10" stroke-width="2"/>
    <rect id="Rectangle_479" data-name="Rectangle 479" width="13.3" height="13.3" transform="translate(40.5 13.8)" fill="#77bb6b" stroke="#fff" stroke-miterlimit="10" stroke-width="2"/>
    <path id="Path_515" data-name="Path 515" d="M40.5,53.8h7.2a6.061,6.061,0,0,0,6.1-6.1V40.5H40.5Z" fill="#eba43f" stroke="#fff" stroke-miterlimit="10" stroke-width="2"/>
    <path id="Path_516" data-name="Path 516" d="M47.7.5H40.5V13.8H53.8V6.6A6.061,6.061,0,0,0,47.7.5Z" fill="#77bb6b" stroke="#fff" stroke-miterlimit="10" stroke-width="2"/>
    <rect id="Rectangle_480" data-name="Rectangle 480" width="13.3" height="13.3" transform="translate(0.5 27.1)" fill="#f58c43" stroke="#fff" stroke-miterlimit="10" stroke-width="2"/>
    <rect id="Rectangle_481" data-name="Rectangle 481" width="13.3" height="13.3" transform="translate(0.5 13.8)" fill="#eba43f" stroke="#fff" stroke-miterlimit="10" stroke-width="2"/>
    <rect id="Rectangle_482" data-name="Rectangle 482" width="13.3" height="13.3" transform="translate(27.1 40.5)" fill="#eba43f" stroke="#fff" stroke-miterlimit="10" stroke-width="2"/>
    <path id="Path_517" data-name="Path 517" d="M.5,40.5v7.2a6.061,6.061,0,0,0,6.1,6.1h7.2V40.5Z" fill="#f58c43" stroke="#fff" stroke-miterlimit="10" stroke-width="2"/>
  </g>
</svg>
