<svg xmlns="http://www.w3.org/2000/svg" width="54.3" height="57.3" viewBox="0 0 54.3 57.3">
  <g id="Word_icone" data-name="Word icone" transform="translate(-1157 -1731)">
    <g id="Group_219_2_" transform="translate(1182 1749)">
      <g id="Group_217_2_">
        <path id="Path_202_2_" d="M25.2,2.6H11A2.308,2.308,0,0,1,8.7.4V-13.8a2.348,2.348,0,0,1,2.4-2.3,2.348,2.348,0,0,1,2.3,2.4V-1.8H25.3A2.308,2.308,0,0,1,27.6.4V.5a2.318,2.318,0,0,1-2.4,2.1Z" fill="#295498"/>
        <path id="Path_203_2_" d="M11-13.5,24.8.3V34.7H-10.5V-13.5H11M11-18H-10.5A4.481,4.481,0,0,0-15-13.5h0V34.8a4.481,4.481,0,0,0,4.5,4.5H24.8a4.481,4.481,0,0,0,4.5-4.5h0V.4A4.816,4.816,0,0,0,28-2.8L14.2-16.7A4.816,4.816,0,0,0,11-18Z" fill="#295498"/>
      </g>
    </g>
    <g id="Group_337" data-name="Group 337">
      <path id="Rectangle_352_2_" d="M1161,1758.1h31a4.012,4.012,0,0,1,4,4v11a4.012,4.012,0,0,1-4,4h-31a4.012,4.012,0,0,1-4-4v-11A4.012,4.012,0,0,1,1161,1758.1Z" fill="#295498"/>
      <g id="Group_336" data-name="Group 336">
        <path id="Path_254" data-name="Path 254" d="M1163.6,1773.1v-10h3.4a4.1,4.1,0,0,1,4.2,4.2v1.6a4.1,4.1,0,0,1-4.2,4.2h-3.4Zm2-8.4v6.9h1.3a2.06,2.06,0,0,0,1.7-.7,2.883,2.883,0,0,0,.6-1.9v-1.7a2.883,2.883,0,0,0-.6-1.9,2.06,2.06,0,0,0-1.7-.7h-1.3Z" fill="#fff"/>
        <path id="Path_255" data-name="Path 255" d="M1180.8,1769a4.243,4.243,0,0,1-7.2,3,3.994,3.994,0,0,1-1.1-3v-1.8a4.427,4.427,0,0,1,1.1-3,4.2,4.2,0,0,1,7.2,3Zm-2-1.8a2.883,2.883,0,0,0-.6-1.9,2.179,2.179,0,0,0-3.2,0,2.883,2.883,0,0,0-.6,1.9v1.8a2.883,2.883,0,0,0,.6,1.9,2.179,2.179,0,0,0,3.2,0,2.883,2.883,0,0,0,.6-1.9Z" fill="#fff"/>
        <path id="Path_256" data-name="Path 256" d="M1189.8,1769.7h0a3.253,3.253,0,0,1-1,2.6,4.1,4.1,0,0,1-2.8.9,3.7,3.7,0,0,1-2.9-1.2,4.427,4.427,0,0,1-1.1-3v-2a4.427,4.427,0,0,1,1.1-3,3.631,3.631,0,0,1,2.8-1.2,4.375,4.375,0,0,1,2.9.9,3.253,3.253,0,0,1,1,2.6h-1.9a1.768,1.768,0,0,0-2-2,1.513,1.513,0,0,0-1.4.7,2.851,2.851,0,0,0-.5,1.9v2a2.883,2.883,0,0,0,.6,1.9,1.8,1.8,0,0,0,1.5.7,1.978,1.978,0,0,0,1.4-.5,2.076,2.076,0,0,0,.4-1.5h1.9Z" fill="#fff"/>
      </g>
    </g>
  </g>
</svg>
